<svg width="145" height="39" viewBox="0 0 145 39" fill="none" xmlns="http://www.w3.org/2000/svg">
<mask id="mask0_3819_930" style="mask-type:luminance" maskUnits="userSpaceOnUse" x="0" y="0" width="145" height="39">
<path d="M145 0H0V39H145V0Z" fill="white"/>
</mask>
<g mask="url(#mask0_3819_930)">
<path d="M119.153 0V20.9997C119.246 20.8384 119.354 20.6983 119.477 20.5792V0.32062H144.675V25.1946H122.936C122.936 25.3021 122.936 25.4077 122.936 25.5152H145V0H119.151H119.153Z" fill="#F4F4F4"/>
<path d="M25.8494 38.9601H0V13.4449H25.8494V38.9601ZM0.324502 38.6395H25.5249V13.7656H0.324502V38.6395Z" fill="#F4F4F4"/>
<path d="M38.058 34.4388C39.4745 33.3426 40.794 32.3212 42.193 31.2384C45.1485 33.4904 48.3585 34.4542 51.7998 32.4595C53.9528 31.2115 54.6038 29.115 54.4074 26.6287C54.1821 26.7382 54.011 26.7747 53.9081 26.8764C49.9053 30.8161 44.5189 30.8429 40.4772 26.9379C35.872 22.4876 35.7398 14.7754 40.1896 10.1715C44.3207 5.8979 49.7556 6.00541 54.6328 10.5747C54.8 9.51497 54.9535 8.53775 55.1225 7.45684H60.1941C60.2311 7.97901 60.2952 8.42258 60.2893 8.86415C60.2058 15.5568 60.3709 22.2649 59.9395 28.9365C59.6267 33.7669 56.6887 37.046 51.8795 38.3996C46.5864 39.8894 41.1417 38.3247 38.0599 34.4408L38.058 34.4388ZM54.4696 18.4405C54.4833 15.1901 51.9669 12.6482 48.6966 12.6079C45.3661 12.5676 42.706 15.1786 42.7428 18.4558C42.7779 21.6601 45.4166 24.2558 48.6267 24.2443C51.8562 24.2309 54.456 21.6486 54.4696 18.4424" fill="#F4F4F4"/>
<path d="M122.934 29.4472C122.934 28.1243 122.941 26.817 122.938 25.5152C122.938 25.4077 122.938 25.3022 122.938 25.1946C122.936 24.7665 122.932 24.3384 122.929 23.9122C122.921 23.2153 122.893 22.5068 122.767 21.8233C122.567 20.7386 121.844 20.1165 120.89 20.0858C120.32 20.0666 119.838 20.2318 119.479 20.5812C119.357 20.7002 119.246 20.8403 119.155 21.0016C119.042 21.1936 118.952 21.4144 118.886 21.6679C118.737 22.2438 118.706 22.8601 118.698 23.461C118.677 25.4289 118.691 27.3967 118.691 29.451H115.476C115.476 27.4735 115.492 25.5402 115.468 23.6069C115.461 22.9445 115.424 22.2669 115.274 21.6237C115.061 20.7041 114.469 20.1089 113.446 20.0878C112.418 20.0685 111.802 20.6503 111.559 21.5545C111.37 22.2515 111.295 22.9945 111.279 23.7182C111.242 25.594 111.267 27.4716 111.267 29.4242H108.133V17.2425H110.927C111.009 17.6649 111.098 18.1237 111.215 18.717C112.152 17.5343 113.255 16.8739 114.726 16.9814C116.147 17.0869 117.22 17.7493 117.975 19.0645C118.329 18.5288 118.716 18.0776 119.157 17.7339C119.262 17.6514 119.37 17.5746 119.481 17.5055C120.082 17.1292 120.773 16.9391 121.591 16.9833C123.96 17.1119 125.58 18.358 125.843 20.7616C126.003 22.2303 126.066 23.7106 126.105 25.1985C126.107 25.306 126.111 25.4116 126.113 25.5191C126.144 26.8227 126.16 28.1321 126.206 29.451H122.938L122.934 29.4472Z" fill="#F4F4F4"/>
<path d="M19.2639 0.105621H25.8434C29.236 9.85093 32.6287 19.6001 36.0642 29.4722H29.4012C28.7599 27.5541 28.1265 25.6611 27.4542 23.6549H17.7386C17.0818 25.5805 16.4386 27.4639 15.7683 29.4299H9.0625C12.4766 19.6193 15.8499 9.92002 19.2639 0.105621ZM25.6782 17.8031C24.6444 14.6564 23.6748 11.6979 22.573 8.34386C21.4674 11.7286 20.4978 14.6986 19.4835 17.8031H25.6782Z" fill="#F4F4F4"/>
<path d="M129.805 10.1446C129.056 9.8932 128.348 9.65506 127.642 9.417C127.881 7.87536 129.581 6.45465 131.363 6.2953C133.277 6.12443 134.896 6.68504 135.851 8.40913C136.802 10.1216 136.652 11.8553 135.368 13.3528C134.544 14.3147 133.539 15.1287 132.608 16.0003C132.29 16.2998 131.944 16.5705 131.441 16.9986H136.683V19.2487H127.469V17.707C129 16.3113 130.578 14.8829 132.14 13.4392C132.582 13.0321 133.018 12.6098 133.385 12.1413C134.222 11.0739 134.102 9.76067 133.157 9.08486C132.169 8.38031 130.858 8.66637 130.057 9.76449C129.984 9.86438 129.919 9.96992 129.802 10.1446" fill="#F4F4F4"/>
<path d="M80.1073 18.3809C80.1325 12.0876 85.2447 7.05367 91.603 7.06135C98.0152 7.06903 103.184 12.2105 103.145 18.5442C103.106 24.849 97.8541 29.9348 91.4394 29.8811C85.1416 29.8273 80.082 24.6935 80.1073 18.3809ZM97.2902 18.4482C97.2902 15.29 94.7253 12.7653 91.5466 12.7961C88.4508 12.8268 85.927 15.3207 85.8859 18.3848C85.8456 21.5411 88.3711 24.0715 91.5675 24.0792C94.7954 24.0869 97.2862 21.6351 97.2886 18.4482" fill="#F4F4F4"/>
<path d="M70.9117 29.4375H65.3019V7.4549H70.3152C70.4764 8.30732 70.6358 9.14438 70.8437 10.2368C73.1269 7.56625 75.9716 6.83094 79.4556 7.37234C79.0864 9.13093 78.7328 10.8301 78.3597 12.6021C77.8701 12.6482 77.4231 12.6904 76.9743 12.7326C73.4864 13.0628 71.3314 15.0998 71.1002 18.5825C70.9059 21.4873 70.9623 24.4094 70.9137 27.3237C70.902 27.9957 70.9137 28.6696 70.9137 29.4356" fill="#F4F4F4"/>
</g>
</svg>
